<?xml version="1.0" standalone="no"?><!DOCTYPE svg PUBLIC "-//W3C//DTD SVG 1.1//EN" "http://www.w3.org/Graphics/SVG/1.1/DTD/svg11.dtd"><svg t="1704471575114" class="icon" viewBox="0 0 1241 1024" version="1.1" xmlns="http://www.w3.org/2000/svg" p-id="11495" xmlns:xlink="http://www.w3.org/1999/xlink" width="242.3828125" height="200"><path d="M655.01327826 890.48007269c-136.98740006 102.22050585-279.79676622 20.54811031-279.79676505 20.54811027s149.6714189 128.56521272 480.62283152 75.05133764c44.39406481-7.19183798 89.32085825-26.43349498 149.55726357-128.79352448 19.93927771-33.89169727 31.57052228-66.73062146 36.78365351-96.95663797-211.98800212-5.51754809-387.16698354 130.15071452-387.16698355 130.15071454" fill="#13227a" p-id="11496"></path><path d="M973.02699306 602.29917055c-99.36660104-10.52773587-201.58710688-3.15832055-610.45644619 148.59327857 0 0-78.78043935 39.25703753-115.6528821-20.81447463 0 0 72.43842995-76.00263961-4.49014214-159.38737763 0 0-61.12428527 42.68172238-34.24684973 128.56521162 0 0-70.61193103-30.56848472-128.56521274 36.8851269 0 0 59.53878346 61.64432974 142.26395217 14.75151374 0 0 88.52176527 115.42456917 153.33710088 160.1864706 0 0 142.7966808 81.67239556 279.79676505-20.54811033 0 0 175.17898028-135.71899932 387.24308747-130.15071451s30.13722836-147.59123987-69.22937267-158.08092433zM750.07999753 805.77619726a31.81151825 31.81151825 0 1 1 31.79883525-31.81151942 31.81151825 31.81151825 0 0 1-31.79883525 31.81151942z m0 0" fill="#13227a" p-id="11497"></path><path d="M736.6603066 773.96467784a13.41969207 13.41969207 0 1 0 6.70984605-11.61856036 13.40700789 13.40700789 0 0 0-6.70984604 11.61856036z m1e-8 0" p-id="11498" fill="#13227a"></path><path d="M710.91174814 626.06902226c-1.69965824-10.87020412-13.3055356-20.38321823 1.0527743-28.47562262s30.14991255 10.37552687 15.88039072 14.28220593-16.93316502 14.1934167-16.93316503 14.19341669z m-106.98969653-88.45834554s-26.01492168-19.73633315-67.83413131-2.06749599-38.85114835-56.8244035 11.18730519-64.58702151 40.06881469 37.24027823 56.64682612 66.6545175z m65.41148399 78.91996303s-14.48514937-10.98436059-37.76032268-1.15424539-21.65162014-31.64662624 6.2024846-35.95919327 22.3111883 20.7256865 31.55783808 37.11343866z m20.61153005-75.83774638c-3.51347298-22.52681705-27.56237206-42.22509765 2.19433552-59.00605487s62.46879107 21.56283203 32.90234391 29.59181554-35.09667942 29.41423931-35.09667943 29.41423933z m0 0" fill="#13227a" p-id="11499"></path><path d="M700.01617681 261.23859539c2.39727894-20.42126966 12.77280695-40.58885916 3.97009767-69.47036979s-41.1850087-45.12973803-61.13696943-40.82985517-24.46747127 1.36987418-41.61626505 13.80021176-26.15444648 28.08241767-32.43303504 57.21760732-2.19433551 59.31047056 0 70.84024399 2.53680377 38.21694743 20.11685277 51.80153268 55.35305704 25.076305 82.44612137 15.74086704 33.3082331-45.51025884 32.6106112-60.22372113-6.34200941-18.44256288-3.97009767-38.8765167z m-40.27175927 13.2167475c-0.07610393 4.79455901-2.32117503 13.66068804-7.86409142 16.34969966s-14.72614535 0-18.75966282 0-11.13656845-9.46227742-13.64800501-18.39182616 0.92593362-20.05343304 2.53680375-24.97483274 4.32525014-18.8103995 11.13656848-21.956037 12.4303387-6.27858968 18.75966393-5.07360639 11.91029308 3.33589674 13.1279594 15.71549873-4.56624724 14.57393748-5.33997187 21.18231125 0.12684065 12.3669178 0.07610394 17.14879265z m323.74689046-108.32151816c6.48153308-26.56033448 24.28989505-51.42101074 16.05796699-90.98246514s-52.00447613-66.18520863-81.05087881-63.73719409-35.12204778-2.16896716-61.41601794 11.41561695-41.51479277 32.80087162-54.84569559 70.21872721-11.98639701 77.86718992-10.59115562 93.43048078-2.13091462 50.83754649 20.95399831 71.57591604 75.1654941 42.02215306 115.24699297 34.10732609 54.27491558-54.65543636 55.47989767-74.16345656-6.34200941-25.36803768 0.16489202-51.91568801z m-59.41194282 10.92093969c-0.79909299 6.34200941-5.33997188 17.65615408-13.63532082 20.29442902s-21.00473501-2.38459591-26.75059491-3.03147991-14.47246521-14.26952063-16.71753626-26.44617915 4.31256593-26.30665435 7.31867859-32.55987566 8.96760129-24.0996358 19.15286778-27.1311157 18.65819163-6.27858968 27.52432067-3.67836504 16.4892245 6.34200941 16.36238385 22.83123393-8.68855279 18.48061543-10.76873185 27.0676948-1.67428988 16.32433244-2.53680376 22.61560519zM137.20090407 157.28037876c1.90260282-38.97798902 65.95689683-53.6533988 120.85332915-62.51952667s86.63184664-22.04482396 103.60306423-33.49849346 25.4948772 15.67744736 27.05501175 27.54968785-10.98436059 50.73607422-71.70275787 58.7523747-95.35845196 5.60633619-99.45538915 37.70958714c-1.77576219 13.95242074 34.03122211 56.40583016 58.34648557 47.10844476s81.41871541-31.08852921 106.54575596-32.36961525c41.75578873-2.1055474 120.90406471 31.1773173 95.96728456 130.7722313-11.80882079 47.15918151-126.49771672 136.35319912-201.14316638 123.41550125-80.28983721-13.95242074 1.66160686-81.11429854 16.48922335-78.17160677 11.35219605 2.25775525 102.74055033-31.2407382 106.95164515-60.88328928 4.56624724-32.05251536-12.78549113-53.61534625-40.04344633-56.10141446-21.74040824-1.97870675-54.11002352 40.58885916-64.68849495 49.83550895-9.51301412 8.30803201-49.39156842 23.50348626-69.00106088-0.43125635-11.14925265-13.5972683-17.90983425-41.61626506-40.77911957-69.54647372s-49.91161289-65.95689683-49.15057242-81.64702723z m0 0" fill="#13227a" p-id="11500"></path></svg>