<?xml version="1.0" standalone="no"?><!DOCTYPE svg PUBLIC "-//W3C//DTD SVG 1.1//EN" "http://www.w3.org/Graphics/SVG/1.1/DTD/svg11.dtd"><svg t="1704541584864" class="icon" viewBox="0 0 1024 1024" version="1.1" xmlns="http://www.w3.org/2000/svg" p-id="6329" xmlns:xlink="http://www.w3.org/1999/xlink" width="200" height="200"><path d="M512 4.096C231.424 4.096 4.096 231.424 4.096 512s227.328 508.416 508.416 508.416 508.416-227.328 508.416-508.416S792.576 4.096 512 4.096z m0 941.568c-239.616 0-433.664-194.048-433.664-433.664S272.384 78.336 512 78.336s433.664 194.048 433.664 433.664-194.048 433.664-433.664 433.664z" fill="#F4DCCB" p-id="6330"></path><path d="M358.4 394.24m-62.976 0a62.976 62.976 0 1 0 125.952 0 62.976 62.976 0 1 0-125.952 0Z" fill="#FF9D4D" p-id="6331"></path><path d="M665.6 394.24m-62.976 0a62.976 62.976 0 1 0 125.952 0 62.976 62.976 0 1 0-125.952 0Z" fill="#FF9D4D" p-id="6332"></path><path d="M667.136 628.224c-16.896-10.752-38.912-5.632-49.152 11.264-34.816 55.808-72.704 86.016-112.128 89.6-56.32 5.12-102.912-44.032-103.936-45.056-13.312-14.336-35.84-15.36-50.688-2.048-14.848 13.312-15.872 35.84-2.56 50.688 2.56 3.072 64 69.12 148.48 69.12 4.608 0 9.728 0 14.336-0.512 62.976-5.632 119.296-47.104 166.912-122.88 10.752-17.92 5.632-39.936-11.264-50.176z" fill="#FF9D4D" p-id="6333"></path></svg>