<?xml version="1.0" standalone="no"?><!DOCTYPE svg PUBLIC "-//W3C//DTD SVG 1.1//EN" "http://www.w3.org/Graphics/SVG/1.1/DTD/svg11.dtd"><svg t="1704514602909" class="icon" viewBox="0 0 1024 1024" version="1.1" xmlns="http://www.w3.org/2000/svg" p-id="1916" xmlns:xlink="http://www.w3.org/1999/xlink" width="200" height="200"><path d="M512 4.096C231.424 4.096 4.096 231.424 4.096 512s227.328 508.416 508.416 508.416 508.416-227.328 508.416-508.416S792.576 4.096 512 4.096z m0 941.568c-239.616 0-433.664-194.048-433.664-433.664S272.384 78.336 512 78.336s433.664 194.048 433.664 433.664-194.048 433.664-433.664 433.664z" fill="#d81e06" p-id="1917"></path><path d="M596.992 348.672c-35.328 0-66.048 17.408-84.992 44.032-18.944-25.6-49.664-42.496-83.968-42.496-57.856 0-104.448 46.592-104.448 104.448 0 28.16 11.264 53.248 29.184 72.192l1.536 1.536L511.488 686.08l159.232-159.232c18.944-18.944 30.72-45.056 30.72-73.728 0-57.856-46.592-104.448-104.448-104.448z" fill="#d81e06" p-id="1918"></path></svg>