<?xml version="1.0" standalone="no"?><!DOCTYPE svg PUBLIC "-//W3C//DTD SVG 1.1//EN" "http://www.w3.org/Graphics/SVG/1.1/DTD/svg11.dtd"><svg t="1704541953050" class="icon" viewBox="0 0 1024 1024" version="1.1" xmlns="http://www.w3.org/2000/svg" p-id="10198" xmlns:xlink="http://www.w3.org/1999/xlink" width="200" height="200"><path d="M281.18970229 652.68437179c21.80607779 36.71422438 20.4014318 57.21237785 11.67020811 71.81057927s-12.28350448 32.32223487 3.87321623 35.30738157c16.15672072 2.98514669 58.31587036-5.09980808 73.51417931-28.24898221 15.19830895-23.14697554 6.46049041-49.90558298 36.24161336-69.85198888" fill="#54C6D5" p-id="10199"></path><path d="M286.85884217 649.31674c20.6652156 34.79300369 23.35800224 59.0104992 11.65921787 78.56562743-4.11062149 6.87155265-6.49126525 13.71013188-6.46049042 18.58132816 0.02637856 4.12820747 1.52554588 6.04942817 5.87357261 6.85176807 7.41890219 1.37167259 21.17080003-0.11870219 33.94230295-4.13040518 15.00266967-4.7129267 26.87950821-12.13842375 32.86299044-21.25213252 3.98532443-6.07140958 6.1813192-12.09885635 8.88729554-22.9051749 0.18245043-0.72979997 0.31214375-1.24857413 0.66385403-2.67520064 2.88622821-11.68339783 4.55465625-17.02280886 7.94646889-23.58661492 4.56344969-8.83234074 11.12066-16.20727925 20.58388223-22.54467032a6.59458002 6.59458002 0 0 1 7.33976739 10.95799415c-13.62879851 9.1268985-17.88669931 17.36792515-23.06564218 38.33649105-0.35610743 1.43761854-0.48580075 1.96738295-0.67484603 2.71476892-3.03790293 12.13182889-5.66254592 19.33091182-10.65903924 26.93885841-7.92228892 12.06808151-22.29187854 21.05429556-39.93457774 26.59813928-14.66854365 4.60741336-30.51531919 6.32200366-40.29068517 4.51728745-10.76675116-1.98936523-16.60295407-9.46542081-16.66670143-19.74197406-0.04616226-7.65410884 3.09066004-16.6732963 8.33335028-25.43309711 8.87190813-14.82901181 6.73306589-34.05221259-11.67900068-65.05772881a6.59458002 6.59458002 0 1 1 11.33828066-6.73526446z" fill="#524F75" p-id="10200"></path><path d="M726.25130821 583.57097632c-16.72165625 62.24623998-78.11719551 141.96811703-217.70686823 146.05016226H400.07898741c-59.60401187 0-107.29821181-17.93505926-137.00679482-50.00230378-6.06921187-6.54841775-16.64472004-22.59303115-20.15523487-33.14216076s-5.44932153-16.86014301-2.5696873-24.57580064c-7.13093929-5.0008896-19.01657036-14.76526443-23.67674084-28.19622597-5.2273037-15.06861475-3.40720007-28.87107113-2.91480358-36.18226228s1.11668223-16.71945855 2.91480358-26.59594071C230.93680444 452.54106886 303.99595783 395.49575404 386.16881998 395.49575404h21.39501556c69.12438661 0 147.30093408 62.38472586 161.63974886 147.41523998 1.65743779 9.84570821 8.93345781 48.31628886 15.33679484 55.4142556 20.06510895 22.25670743 66.15682591 23.96030746 88.31901112 3.80946887 3.07747032-2.80049855 7.21886663-6.80340812 12.42199037-12.00653185a17.59653783 17.59653783 0 0 0 4.5216837-17.09974595c-1.11448365-4.05346809-2.06630144-6.95288514-2.85325479-8.70264742-1.42662739-2.95437186-3.5720645-12.02631555-12.49892745-20.66301702-8.92466525-8.63890005-38.11227552-22.15559036-32.41016222-26.40689629 0.91884437-0.68583629 5.36578958-3.39401034 12.76271037-4.86460142 30.84065179-6.1417518 48.43718961 16.13693702 54.72622073 24.7164851 0.68583629 0.93643038 1.34749261 1.86846447 1.98716666 2.791706 0.62428662-0.92543924 1.2749518-1.87725703 1.94979783-2.85765107 5.71530303-8.30477402 24.67911628-29.86245632 54.99000366-24.49666673 6.2736437 1.10788966 11.96916303 3.99411699 13.19355629 4.7129267 6.3857519 3.75451406-31.0450845 26.4068963-37.29674592 33.52244816s-13.89038373 17.34154747-18.10212138 32.79044962z" fill="#6ED8E6" p-id="10201"></path><path d="M726.25130821 583.57097632c4.21173853-15.44670445 11.85045997-25.67489775 18.09992369-32.79044962s43.68249781-29.76793411 37.29674591-33.52244816c-1.22439327-0.71880883-6.9199126-3.60503703-13.1935563-4.71292671-30.31088737-5.36578958-49.2747015 16.19189183-54.99000454 24.49666674-0.67484516 0.97819634-3.25112819 1.00237632-3.9369636 0.06594506-6.28683254-8.57735038-23.88337036-30.85823778-54.72622073-24.71648509-7.39472221 1.47059107-11.84386599 4.18096371-12.76271036 4.86460142-5.70211331 4.25130594 23.48769556 17.76799624 32.41016222 26.40689629 8.92686295 8.63890005 11.07010147 17.71084374 12.49892657 20.66301702 0.78475478 1.74976229 1.73877114 4.64917846 2.85325566 8.70264742a17.58554669 17.58554669 0 0 1-4.52168371 17.09974595c-5.20312373 5.20312373-9.34452004 9.20603328-12.42199036 12.00653185-22.16218522 20.15083771-68.25390219 18.44723856-88.31901113-3.80946887-6.40113931-7.09796587-13.67935705-45.56854741-15.33679482-55.4142556C554.86476962 457.88048077 476.68822215 395.49575404 407.56383554 395.49575404h-21.39501555c-82.17286217 0-155.23201556 57.04531484-169.49829041 135.4306904-1.79592365 9.87428445-2.42021116 19.28255187-2.91480358 26.5959407s-2.31469781 21.11144894 2.91480358 36.18226229c4.6601696 13.43096154 16.54799926 23.1953355 23.67674084 28.19622597-2.87963335 7.71565852-0.93862896 14.02667191 2.5696873 24.57580064s14.086023 26.593743 20.15523487 33.14216076C292.78297331 711.68607932 340.47497554 729.62113858 400.07898741 729.62113858h108.46325487c139.59187042-4.08204522 200.98521109-83.80392228 217.70906593-146.05016226z m-15.17852526-60.98887329l0.44403478 17.31516803c2.04871633-11.87903711 2.06190516-18.87368821 0.03956739-20.97735846-3.48853255 3.44017261 0.16486444 2.69938151-0.48360217 3.66219043zM204.20897183 598.02849329c-4.33923328-12.50772001-4.98770077-23.37558736-3.90618966-37.56492512-0.0197837 0.25938664 0.24399922-3.11923629 0.29236006-3.82925257 0.85509701-12.681377 1.51235705-19.35729038 3.09725401-28.06873035C219.02699337 444.31323105 297.16836885 382.30659402 386.16881998 382.30659402h21.39501556c79.09099556 0 159.8460229 70.64773479 174.64426076 158.41060381 3.25332589 19.30233557 9.70722144 46.09391555 12.12523403 48.77571105 15.05322821 16.69747627 52.76103636 18.24280673 69.65195331 2.88402963 2.89721847-2.63563413 6.90452518-6.50445408 11.96916304-11.57348733a4.39638667 4.39638667 0 0 0 1.13206965-4.2754868c-0.94961922-3.44676747-1.72338373-5.80982523-2.16522081-6.79241697-0.6264852-1.45959993-2.32129179-5.84719404-2.98074953-7.24744377a31.31106598 31.31106598 0 0 0-6.65832826-9.35111403c-1.71459117-1.66183406-5.29105107-4.14359402-12.07027922-8.42347708-9.98199551-6.28903112-12.70775556-8.08275708-16.09736963-10.79972369-2.98514669-2.39383261-5.17454748-4.61400734-6.78582299-7.39032593-3.74132522-6.45829183-2.96316441-14.77625558 3.83364972-19.84089255 3.73473036-2.78511114 10.32491409-5.68452819 18.06914885-7.22546148 17.36792515-3.45995631 32.95751263 0.02198227 46.33132079 8.71363855a72.43486588 72.43486588 0 0 1 12.99571845 10.75136375 76.17838968 76.17838968 0 0 1 13.20894371-10.45021112c13.4617355-8.38171111 28.99636817-11.92080219 45.99060078-8.91367411 6.64953482 1.1782319 13.49690661 3.93036962 17.57895184 6.3307962 7.83875697 4.60961106 8.84333188 13.15179032 5.41414953 19.88046082-1.38266373 2.71257034-3.35224437 5.05804299-6.05822073 7.64971257-3.43797402 3.30168672-8.01900883 6.93749771-14.88396661 12.01092812l-2.07949116 1.52994304c-13.95632968 10.22819329-15.42032589 11.33608297-16.46226961 12.52310742-7.41010962 8.43666593-12.3010896 16.60735034-15.28623629 27.55435248-10.12048226 37.68362817-33.05423254 73.99558377-67.20756219 101.62247706-40.7808822 32.98608889-95.31146366 52.1675237-162.83776445 54.1415015L400.07898741 742.81029771c-62.50562662 0-113.98511632-18.93523701-146.68324143-54.22723026-8.13111703-8.77738593-19.16824596-26.43986884-22.99530082-37.94301482-3.50831625-10.54693191-5.13937636-17.10414223-4.73051183-23.34481339-9.79734738-8.12452218-17.42727624-17.63830293-21.4609615-29.26674595z" fill="#524F75" p-id="10202"></path><path d="M230.63125554 566.95483254m-6.59458002 0a6.59458002 6.59458002 0 1 0 13.18916002 0 6.59458002 6.59458002 0 1 0-13.18916002 0Z" fill="#646092" p-id="10203"></path><path d="M415.27949406 417.4776874m-6.59458 1e-8a6.59458002 6.59458002 0 1 0 13.18916002 0 6.59458002 6.59458002 0 1 0-13.18916002 0Z" fill="#646092" p-id="10204"></path><path d="M463.63974748 463.63974748m-6.59458001 0a6.59458002 6.59458002 0 1 0 13.18915913 0 6.59458002 6.59458002 0 1 0-13.18915913 0Z" fill="#646092" p-id="10205"></path><path d="M459.2433608 432.86504076m-4.39638668 0a4.39638667 4.39638667 0 1 0 8.79277335 0 4.39638667 4.39638667 0 1 0-8.79277335 0Z" fill="#646092" p-id="10206"></path><path d="M505.40541998 481.22529329m-4.39638666 0a4.39638667 4.39638667 0 1 0 8.79277334 0 4.39638667 4.39638667 0 1 0-8.79277334 0Z" fill="#646092" p-id="10207"></path><path d="M388.90117402 406.48672072m-4.39638667 0a4.39638667 4.39638667 0 1 0 8.79277335 0 4.39638667 4.39638667 0 1 0-8.79277335 0Z" fill="#646092" p-id="10208"></path><path d="M526.28825625 477.92800371m-5.4954829 0a5.4954829 5.4954829 0 1 0 10.99096668 0 5.4954829 5.4954829 0 1 0-10.99096668 0Z" fill="#646092" p-id="10209"></path><path d="M541.6756096 515.29728956m-5.4954829 0a5.4954829 5.4954829 0 1 0 10.99096669 0 5.4954829 5.4954829 0 1 0-10.99096669 0Z" fill="#646092" p-id="10210"></path><path d="M684.55817562 603.22502215m-3.29729045 0a3.29728956 3.29728956 0 1 0 6.59458001 0 3.29728956 3.29728956 0 1 0-6.59458001 0Z" fill="#646092" p-id="10211"></path><path d="M557.06296297 565.85573631m-5.49548291 0a5.4954829 5.4954829 0 1 0 10.9909658 0 5.4954829 5.4954829 0 1 0-10.9909658 0Z" fill="#646092" p-id="10212"></path><path d="M325.15356814 421.87407408m-4.39638668 0a4.39638667 4.39638667 0 1 0 8.79277335 0 4.39638667 4.39638667 0 1 0-8.79277335 0Z" fill="#646092" p-id="10213"></path><path d="M254.81138225 591.13495924m-4.39638669 0a4.39638667 4.39638667 0 1 0 8.79277336 0 4.39638667 4.39638667 0 1 0-8.79277336 0Z" fill="#646092" p-id="10214"></path><path d="M571.35121922 599.92773259m-4.39638668 0a4.39638667 4.39638667 0 1 0 8.79277334 0 4.39638667 4.39638667 0 1 0-8.79277335 0Z" fill="#646092" p-id="10215"></path><path d="M639.49521265 628.50424596m-4.39638667 0a4.39638667 4.39638667 0 1 0 8.79277334 0 4.39638667 4.39638667 0 1 0-8.79277334 0Z" fill="#646092" p-id="10216"></path><path d="M232.82944888 533.98193337m-4.39638667 0a4.39638667 4.39638667 0 1 0 8.79277333 0 4.39638667 4.39638667 0 1 0-8.79277333 0Z" fill="#646092" p-id="10217"></path><path d="M227.33396598 592.23405635m-3.29729046 0a3.29728956 3.29728956 0 1 0 6.59458002 0 3.29728956 3.29728956 0 1 0-6.59458002 0Z" fill="#646092" p-id="10218"></path><path d="M247.11770513 488.91897041m-3.29728957 0a3.29728956 3.29728956 0 1 0 6.59458 0 3.29728956 3.29728956 0 1 0-6.59458 0Z" fill="#646092" p-id="10219"></path><path d="M278.99150895 468.03613327m-2.19819335 0a2.19819334 2.19819334 0 1 0 4.39638669 0 2.19819334 2.19819334 0 1 0-4.39638669 0Z" fill="#646092" p-id="10220"></path><path d="M265.80234893 465.8379408m-2.19819335 0a2.19819334 2.19819334 0 1 0 4.39638669 0 2.19819334 2.19819334 0 1 0-4.39638669 0Z" fill="#646092" p-id="10221"></path><path d="M443.85600745 424.07226741m-2.19819335 0a2.19819334 2.19819334 0 1 0 4.39638668 0 2.19819334 2.19819334 0 1 0-4.39638668 0Z" fill="#646092" p-id="10222"></path><path d="M498.81083998 461.44155414m-2.19819334 0a2.19819334 2.19819334 0 1 0 4.39638668 0 2.19819334 2.19819334 0 1 0-4.39638668 0Z" fill="#646092" p-id="10223"></path><path d="M536.1801267 496.61264664m-2.19819333 0a2.19819334 2.19819334 0 1 0 4.39638667 0 2.19819334 2.19819334 0 1 0-4.39638667 0Z" fill="#646092" p-id="10224"></path><path d="M661.47714514 619.71147262m-2.19819334 0a2.19819334 2.19819334 0 1 0 4.39638668 0 2.19819334 2.19819334 0 1 0-4.39638668 0Z" fill="#646092" p-id="10225"></path><path d="M558.1620592 531.78374003m-2.19819247 1e-8a2.19819334 2.19819334 0 1 0 4.3963858 0 2.19819334 2.19819334 0 1 0-4.3963858 0Z" fill="#646092" p-id="10226"></path><path d="M289.98247474 452.64878078m-2.19819333 0a2.19819334 2.19819334 0 1 0 4.39638668 0 2.19819334 2.19819334 0 1 0-4.39638668 0Z" fill="#646092" p-id="10227"></path><path d="M305.36982811 437.26142744m-2.19819334-1e-8a2.19819334 2.19819334 0 1 0 4.39638667 0 2.19819334 2.19819334 0 1 0-4.39638667 0Z" fill="#646092" p-id="10228"></path><path d="M342.73911483 430.66684743m-2.19819334-1e-8a2.19819334 2.19819334 0 1 0 4.39638668 0 2.19819334 2.19819334 0 1 0-4.39638668 0Z" fill="#646092" p-id="10229"></path><path d="M404.28852738 426.27046074m-2.19819334 0a2.19819334 2.19819334 0 1 0 4.39638668 0 2.19819334 2.19819334 0 1 0-4.39638668 0Z" fill="#646092" p-id="10230"></path><path d="M446.05420078 413.08130072m-2.19819334 0a2.19819334 2.19819334 0 1 0 4.39638668 0 2.19819334 2.19819334 0 1 0-4.39638668 0Z" fill="#646092" p-id="10231"></path><path d="M492.21625997 435.0632341m-2.19819334 0a2.19819334 2.19819334 0 1 0 4.39638668 0 2.19819334 2.19819334 0 1 0-4.39638668 0Z" fill="#646092" p-id="10232"></path><path d="M520.79277335 465.8379408m-2.19819334 0a2.19819334 2.19819334 0 1 0 4.39638667 0 2.19819334 2.19819334 0 1 0-4.39638667 0Z" fill="#646092" p-id="10233"></path><path d="M353.73008152 408.68491406m-2.19819334 0a2.19819334 2.19819334 0 1 0 4.39638668 0 2.19819334 2.19819334 0 1 0-4.39638668 0Z" fill="#646092" p-id="10234"></path><path d="M289.98247474 439.45962076m-2.19819333 0a2.19819334 2.19819334 0 1 0 4.39638668 0 2.19819334 2.19819334 0 1 0-4.39638668 0Z" fill="#646092" p-id="10235"></path><path d="M303.17163477 457.04516746m-2.19819334 0a2.19819334 2.19819334 0 1 0 4.39638668 0 2.19819334 2.19819334 0 1 0-4.39638668 0Z" fill="#646092" p-id="10236"></path><path d="M711.81137636 621.25240592c-28.72159412 52.40932522-91.31514808 105.59461265-203.97475407 108.8171637H401.99581184c-59.56884076 0-109.21503711-19.20561478-138.90603413-50.56064444-6.0648156-6.4055356-16.55679181-21.94676226-20.06510807-32.26508148a148.98035414 148.98035414 0 0 1-4.2776845-14.93232745c49.0482874 8.5355844 83.25217558 11.9405859 102.60946596 10.21280676 34.83696736-3.10384888 65.61826894-10.21280588 82.5663393-27.1059223 55.59670516 132.04767032 222.45056888 82.77956368 287.88858596 5.83400521z" fill="#FFFFFF" p-id="10237"></path><path d="M597.72953926 661.47714514c-21.80607779 33.92251926-11.51193853 54.9416437-11.03712894 68.51988455 0.47261191 13.58043856-5.94611253 32.72670225-22.94254372 34.60835556-16.99203402 1.88165331-40.66437771-10.61947184-55.0757333-30.25813113-14.41355329-19.63646072-6.46049041-46.11150155-36.24161336-64.53895641" fill="#6ED8E6" p-id="10238"></path><path d="M592.18349781 657.9116755c-14.7520756 22.94474142-17.02280886 39.6949748-13.41557411 62.28800595 1.22659185 7.68048741 1.25516811 7.89591037 1.33210518 10.02815775 0.48799932 14.02667191-6.40113931 26.64210296-17.07776367 27.82473114-14.68173337 1.62446525-36.12730746-10.0193652-49.03509856-27.60491101-3.85782969-5.25587996-5.73508672-10.23258958-8.84333188-21.8060778a334.85078735 334.85078735 0 0 0-1.66623033-6.06921187c-5.08881783-17.70205118-12.15381117-28.82710746-27.57633477-38.37166305a6.59677771 6.59677771 0 0 0-6.93969629 11.2173808c12.24833337 7.57717263 17.58115042 15.97646886 21.84124891 30.80108438 0.45282821 1.57610442 0.72760227 2.58287701 1.60468067 5.84499635 3.52150596 13.10343038 5.81861779 19.1990208 10.94920071 26.18707705 15.49066812 21.10705179 41.2754755 35.10734514 61.11856749 32.9091518 19.01437179-2.10586884 29.5063489-21.3114845 28.80512518-41.39197997-0.10331476-2.95876814-0.12529704-3.09066004-1.49037563-11.64822585-3.13901999-19.64745185-1.30133036-33.18832301 11.48555997-53.07757639a6.59458002 6.59458002 0 1 0-11.09208287-7.13093928z" fill="#524F75" p-id="10239"></path><path d="M457.04516746 654.88256513m-8.79277334 0a8.79277335 8.79277335 0 1 0 17.58554668 0 8.79277335 8.79277335 0 1 0-17.58554668 0Z" fill="#524F75" p-id="10240"></path><path d="M242.72131845 536.1801267c16.38972968 0 29.6756096-14.38058076 29.67561049-32.11780304 0-17.73941999-13.28588081-33.61037551-29.67561049-33.61037551S213.04570884 486.32290367 213.04570884 504.06232365C213.04570884 521.79954595 226.33158966 536.1801267 242.72131845 536.1801267z" fill="#FFFFFF" p-id="10241"></path><path d="M242.72131845 542.77470671C222.56828215 542.77470671 206.45112884 525.32984447 206.45112884 504.06232365c0-21.47634893 16.26223406-40.20495553 36.27018961-40.20495551s36.27018961 18.72860747 36.2701905 40.20495551C278.99150895 525.32984447 262.87435563 542.77470671 242.72131845 542.77470671z m0-13.18916002c12.62642219 0 23.08102959-11.31629928 23.08103048-25.52322304 0-14.57182375-10.80411997-27.01579551-23.08103048-27.01579549S219.64028886 489.4905008 219.64028886 504.06232365C219.64028886 518.26924743 230.09489626 529.58554669 242.72131845 529.58554669z" fill="#524F75" p-id="10242"></path><path d="M226.17331919 512.96940291C227.78459561 515.06867776 230.16963478 516.39638667 232.82944888 516.39638667c4.85580886 0 8.79277335-4.42935921 8.79277335-9.89186957s-3.93696448-9.89186957-8.79277335-9.89187046c-4.79645777 0-8.69825115 4.32164817-8.79277336 9.69183491l6.51984151 1.06612369-4.38319784 5.59879767z" fill="#232323" p-id="10243"></path><path d="M321.85627857 538.37832004c22.45894067 0 40.66657629-18.03397775 40.66657629-40.27969492C362.52285486 475.85290884 342.19396299 457.04516746 319.73502144 457.04516746S281.18970229 475.85290884 281.18970229 498.09862512 299.39733702 538.37832004 321.85627857 538.37832004z" fill="#FFFFFF" p-id="10244"></path><path d="M321.85627857 544.97290006c-26.08815857 0-47.26115631-20.97296219-47.2611563-46.87427494C274.59512227 471.74668365 294.03154743 450.45058745 319.73502144 450.45058745 346.01002672 450.45058745 369.11743487 472.36657488 369.11743487 498.09862512 369.11743487 523.99993699 347.94443626 544.97290006 321.85627857 544.97290006z m0-13.18916002c18.83192224 0 34.07199629-15.0949933 34.07199628-33.68511492C355.92827485 479.8118556 338.87688886 463.63974748 319.73502144 463.63974748 301.59772894 463.63974748 287.78428141 478.77650587 287.78428141 498.09862512 287.78428141 516.68874673 303.02435633 531.78374003 321.85627857 531.78374003z" fill="#524F75" p-id="10245"></path><path d="M301.69005257 509.2808348A13.18916002 13.18916002 0 1 0 311.96440812 487.8198733a13.18916002 13.18916002 0 0 0-13.17597031 13.80685266l8.77958363 1.22878954-5.87796887 6.4253193z" fill="#232323" p-id="10246"></path><path d="M385.46539858 360.41478745a6.59458002 6.59458002 0 0 0 12.99791702-2.22896818L388.46153553 299.90292146C384.13109481 279.48170597 364.45067042 266.54973401 344.43172373 270.80543711S311.68963406 294.88004958 315.97611111 315.04407701a6.59458002 6.59458002 0 1 0 12.90119624-2.74114658c-2.77851628-13.07265554 5.42953783-25.86174446 18.29336526-28.59629708 12.82426004-2.72576005 25.48585334 5.56142886 28.31712587 18.56374216l9.97979781 58.14441194z" fill="#524F75" p-id="10247"></path><path d="M360.63240812 305.55227854c0.18245043 0.86388956 0.29895404 1.73217629 0.34291858 2.59606585 0.43963849 8.03439624-4.97670962 15.23348006-12.79568378 16.89531413-8.75320596 1.86186962-17.40749255-3.82485628-19.30233557-12.74072809l-0.31873773-1.50356449-12.90339482 2.74114659 0.32093631 1.50576307c3.40280291 16.00944228 19.03635407 26.28159925 34.94467929 22.89857916 14.22231118-3.0225155 24.01086598-16.03801854 23.22611032-30.51092291a30.32627478 30.32627478 0 0 0-0.61549406-4.62280079l-12.90119624 2.74114748z" fill="#524F75" p-id="10248"></path><path d="M360.73572375 305.9391608l-0.13628816-0.63747635c-0.38468368-1.80911338-1.88385189-2.85325479-3.17858739-2.57628303-1.29693407 0.27477406-2.24215701 1.83988821-1.85747332 3.64460531l0.13628729 0.63967404a6.59458002 6.59458002 0 1 1-12.90119624 2.7411466l-0.13628818-0.63747547c-1.85967191-8.75320596 3.40500149-17.46024966 12.01752297-19.28914672 8.61252149-1.83109477 16.9612592 3.97872958 18.82312969 12.73413411l0.13628818 0.63747546a6.59458002 6.59458002 0 1 1-12.90339483 2.74334605z" fill="#524F75" p-id="10249"></path><path d="M488.56725925 265.97380734c27.32793926 5.80982523 44.70026069 32.87617926 38.84427408 60.42833493a6.59458002 6.59458002 0 0 1-12.90119624-2.7389489c4.35022442-20.46298146-8.51360301-40.49951328-28.6842253-44.78818891s-40.0730645 8.78837707-44.42109035 29.24696227l-26.1035451 79.13495923a6.59458002 6.59458002 0 0 1-12.52310742-4.13700004l25.80459107-78.10620523c6.01645476-27.34332667 32.77726079-44.82116144 59.98649784-39.03991335z" fill="#524F75" p-id="10250"></path><path d="M473.50304079 314.6681859c-0.2264141 1.063926-0.36270229 2.13224739-0.41765709 3.20056966-0.50558444 9.97979781 6.48027411 19.02975921 16.58536895 21.17739401 11.30091186 2.40262517 22.33804079-4.64917846 24.68571026-15.69509995l0.37369342-1.76514882 12.90339483 2.74114659-0.37369343 1.7673474c-3.87101854 18.20983332-21.94456368 29.76133926-40.32805397 25.8529519-16.43149477-3.49292884-27.84891111-18.28457183-27.01579639-34.74464373 0.08792735-1.76734741 0.31654004-3.52809995 0.68803488-5.27566366l12.89899854 2.7411466z" fill="#524F75" p-id="10251"></path><path d="M473.4656711 314.60223995l0.20223413-0.94961921c0.94522293-4.45134148 4.70413327-7.1661104 8.11133333-6.44070672 3.40939777 0.72540369 5.73728442 4.7327104 4.78986291 9.18185418l-0.20223412 0.95181692a6.59458002 6.59458002 0 0 0 12.90119712 2.74114746l0.20223324-0.9496192c2.40262517-11.30311044-4.1084229-22.52049035-14.94771398-24.82639561-10.84148966-2.30370668-21.35324958 5.29764593-23.75587563 16.60075637l-0.20223325 0.94961921A6.59458002 6.59458002 0 1 0 473.4656711 314.60223995z" fill="#524F75" p-id="10252"></path><path d="M437.16690523 208.24045852a13.05287184 13.00890817 90 1 0 26.01781546 0 13.05287184 13.00890817 90 1 0-26.01781546 0Z" fill="#7BFFFB" p-id="10253"></path><path d="M450.17581339 225.6919156c-9.61709552 0-17.40529484-7.81677558-17.40529484-17.44925851 0-9.63468152 7.79039703-16.11495563 17.40529484-16.11495562 9.61709552 0 17.40529484 6.48027411 17.40529396 16.11495562 0 9.63248293-7.78819932 17.44925852-17.40529396 17.44925851z m0-8.79277333c4.75469179 0 8.61252149-3.87321623 8.61252063-8.65648518 0-4.78546663-3.86002739-8.2322341-8.61252063-8.23223409s-8.61252149 3.44676747-8.61252149 8.23223409a8.63230519 8.63230519 0 0 0 8.61252149 8.65648518z" fill="#524F75" p-id="10254"></path><path d="M387.32287191 251.97351486a21.35984444 21.28950221 90 1 0 42.57900443 0 21.35984444 21.28950221 90 1 0-42.57900443 0Z" fill="#7BFFFB" p-id="10255"></path><path d="M408.61237412 278.83104079c-14.79603927 0-26.78498512-12.02851412-26.78498599-26.85532822s11.98674815-26.85532735 26.78498599-26.85532735 26.78498512 12.02851412 26.78498512 26.85532735-11.98894673 26.85532735-26.78498512 26.85532822z m0-12.13182888c8.71803484 0 15.79401932-5.95930225 15.79401844-14.72569705s-7.07598448-14.6927245-15.79401844-14.6927245-15.79401932 5.92632884-15.79401931 14.6927245 7.0737859 14.72569704 15.79401931 14.72569705z" fill="#524F75" p-id="10256"></path><path d="M378.0289104 179.76066593a10.68102151 10.64365181 90 1 0 21.28730363-1e-8 10.68102151 10.64365181 90 1 0-21.28730363 0Z" fill="#7BFFFB" p-id="10257"></path><path d="M388.67256222 194.83807411c-8.31136888 0-15.04223707-6.75284958-15.04223708-15.07740819 0-8.32236002 6.73086819-13.69474446 15.04223708-13.69474446 8.30917031 0 15.04003849 5.37238444 15.04003849 13.69474446 0.00219858 8.32455772-6.72866962 15.07740819-15.04003849 15.07740819z m0-8.79277334a6.26485115 6.26485115 0 0 0 6.24726515-6.28463485A6.26485115 6.26485115 0 0 0 388.67256222 173.47822966a6.26485115 6.26485115 0 0 0-6.24946372 6.28243627 6.26924743 6.26924743 0 0 0 6.24946372 6.28463483z" fill="#524F75" p-id="10258"></path><path d="M234.57041773 631.14867265c23.17775038 10.18862591 55.19443636 14.21571633 96.13798528 12.26811618 41.2359081-1.96078809 71.48964295-10.19961705 90.79417623-25.0769888a6.59458002 6.59458002 0 1 0-8.05417995-10.44581484c-16.78100734 12.93416966-44.5815585 20.50254886-83.36868006 22.34903104-39.08167931 1.85967191-69.17934142-1.92781556-90.20506071-11.16901995a6.59458002 6.59458002 0 1 0-5.30424079 12.07467637z" fill="#524F75" p-id="10259"></path><path d="M410.50941485 606.51132146c9.93803183 0.56493553 13.39359185 3.53029853 13.56285257 13.31665564a6.59458002 6.59458002 0 1 0 13.18696144-0.23300896c-0.30115261-17.29318664-9.65226663-25.32538519-26.00462662-26.25082442a6.59458002 6.59458002 0 1 0-0.74518739 13.16717774z" fill="#524F75" p-id="10260"></path><path d="M570.25432068 665.16131785c-9.53576303 10.77994-13.23532228 29.56350229-10.12707624 46.24339255 2.90161475 15.57639777 2.41801259 21.30269105-1.48817707 22.96232741a4.39638667 4.39638667 0 1 0 3.43797491 8.09374734c5.33941191-2.27073327 8.04978366-6.88913777 8.59713408-13.36721329 0.40446737-4.7349081-0.2264141-10.29194067-1.90363558-19.30013699-2.64882297-14.21351774 0.5121793-30.26252741 8.06956735-38.80910296a4.3919904 4.3919904 0 0 0-0.38248598-6.20330235 4.38539554 4.38539554 0 0 0-6.20330147 0.38028829z" fill="#52C7D7" p-id="10261"></path><path d="M705.78392958 524.43298151c1.27055553 4.67335931 0.94522293 9.29176293-1.02435772 14.03986074a5.49768148 5.49768148 0 0 0 10.15565337 4.20734226c2.88622821-6.97486742 3.39401034-14.08162672 1.47498736-21.13123264a5.48888892 5.48888892 0 0 0-3.17858739-3.62701932c-0.5121793-0.21542297-1.0837097 1.02655631-1.64644664 0.97380008-0.63527776-0.05715339-1.26615924-1.38486142-1.919023-1.20680815a5.4932852 5.4932852 0 0 0-3.86222598 6.74405703zM576.65326142 578.22936673c0.25718894 0.99578146 0.60450293 2.73455261 1.11668223 5.51306889 0.12529704 0.69462886 1.17383562 6.53522892 1.51235704 8.34873769 0.99578146 5.37678072 1.80251852 9.19064586 2.62244529 12.10545033 0.16706301 0.59571036 0.33632373 1.15405192 0.50558445 1.67502378a62.85514006 62.85514006 0 0 0 4.31944958 10.0215629c1.02216002 1.91462672 4.53707113 7.84755042 5.10420524 8.97742148a6.59897629 6.59897629 0 0 0 8.85212445 2.93678674 6.59897629 6.59897629 0 0 0 2.93678586-8.85212444c-0.82432218-1.63985179-4.45354006-7.76182076-5.25587996-9.26538526a49.3164666 49.3164666 0 0 1-3.43138006-7.93987404c-0.10771104-0.32313401-0.21981924-0.70122371-0.33852142-1.12327708-0.67924143-2.41801259-1.42442969-5.93512227-2.34986894-10.93601099-0.32753116-1.77174368-1.37387116-7.59036147-1.50796076-8.32236002-0.56493553-3.08406518-0.95621408-5.0206733-1.31451919-6.42092302a6.59458002 6.59458002 0 0 0-12.77150381 3.28190304z" fill="#524F75" p-id="10262"></path></svg>